# xmcd
#
# Track frame offsets: 
#        150
#        17416
#        31641
#        47821
#        64007
#        81267
#        100888
#        115666
#        128692
#        146740
#
# Disc length: 2292 seconds
#
# Revision: 4
# Processed by: cddbd v1.5.2PL0 Copyright (c) Steve Scherf et al.
# Submitted via: ExactAudioCopy v1.3
#
DISCID=7808f20a
DTITLE=Wynonna Judd - Tell Me Why
DYEAR=1993
DGENRE=Country
TTITLE0=Tell Me Why
TTITLE1=Rock Bottom
TTITLE2=Only Love
TTITLE3=Let's Make A Baby King
TTITLE4=Is It Over Yet
TTITLE5=Father Sun
TTITLE6=Girls With Guitars
TTITLE7=Just Like New
TTITLE8=I Just Drove By
TTITLE9=That Was Yesterday
EXTD=YEAR: 1993
EXTT0=
EXTT1=
EXTT2=
EXTT3=
EXTT4=
EXTT5=
EXTT6=
EXTT7=
EXTT8=
EXTT9=
PLAYORDER=
